<?xml version="1.0" encoding="utf-8"?>
<!-- Generator: Adobe Illustrator 24.0.2, SVG Export Plug-In . SVG Version: 6.00 Build 0)  -->
<svg version="1.1" id="Слой_1" xmlns="http://www.w3.org/2000/svg" xmlns:xlink="http://www.w3.org/1999/xlink" x="0px" y="0px"
	 viewBox="0 0 80 36" style="enable-background:new 0 0 80 36;" xml:space="preserve">
<style type="text/css">
	.st0{fill:#FFFFFF;}
</style>
<g>
	<path class="st0" d="M65.9,34.3H0v1.4h79.9v-1.4h-1H65.9z M40,0L0,19v2.6h1.1c1.3-1.3,3.9-2.4,5.7-1.8C7,20,7,20.2,7.2,20.2
		c0.3,0,0.3-0.2,0.4-0.4c1.7-0.6,4.2,0.4,5.5,1.7l0.1,0.1v0.1h1.1v2.8h2.3v-9.6h1.1c1.3-1.3,3.9-2.4,5.7-1.8
		c0.2,0.2,0.2,0.4,0.4,0.4c0.3,0,0.3-0.2,0.4-0.4c1.7-0.6,4.2,0.4,5.5,1.7l0.1,0.1V15h1.1v9.5h2.3V8h1.1c1.3-1.3,3.9-2.4,5.7-1.8
		c0,0.2,0,0.4,0.3,0.4s0.3-0.2,0.4-0.4c1.7-0.6,4.2,0.4,5.5,1.7L46.3,8v0.1h1.1v16.3h2.3v-9.5h1.1c1.3-1.3,3.9-2.4,5.7-1.8
		c0.2,0.2,0.2,0.4,0.4,0.4c0.3,0,0.3-0.2,0.4-0.4c1.7-0.6,4.2,0.4,5.5,1.7l0.1,0.1V15H64v9.5h2.3v-2.8h1.1c1.3-1.3,3.9-2.4,5.7-1.8
		c0.2,0.2,0.2,0.4,0.4,0.4c0.3,0,0.3-0.2,0.4-0.4c1.7-0.6,4.2,0.4,5.5,1.7l0.1,0.1v0.1H80V19L40,0z"/>
	<g>
		<path class="st0" d="M0.9,31.1C1.1,31.7,1.5,32,2.1,32c0.4,0,0.6-0.1,0.8-0.2c0.2-0.2,0.4-0.4,0.4-0.7s-0.2-0.6-0.6-0.8
			C2.5,30.1,2.2,30.1,2,30l-0.6-0.3c-0.4-0.3-0.8-0.6-0.9-1.1c-0.1-0.2-0.1-0.4-0.1-0.6c0-0.3,0.1-0.6,0.2-0.8
			c0.1-0.3,0.2-0.5,0.4-0.7C1.4,26.2,2,26,2.6,26c0.4,0,0.9,0,1.2,0.2L4,26.4l-0.2,0.4c0,0.1-0.1,0.3-0.2,0.5
			c-0.2-0.3-0.3-0.5-0.4-0.6c-0.2-0.2-0.4-0.2-0.6-0.2c-0.3,0-0.5,0.1-0.6,0.2c-0.2,0.2-0.3,0.4-0.3,0.6c0,0.4,0.2,0.6,0.5,0.8
			c0.2,0.2,0.4,0.3,0.7,0.4c0.6,0.3,1.1,0.6,1.2,0.9c0.1,0.2,0.2,0.3,0.3,0.5c0,0.2,0.1,0.4,0.1,0.6c0,0.6-0.2,1.2-0.7,1.5
			c-0.4,0.4-1,0.6-1.6,0.6c-0.2,0-0.4,0-0.6-0.1S1.2,32.4,1,32.3l-0.4-0.2c0.1-0.3,0.2-0.4,0.2-0.6s0.1-0.3,0.1-0.6L0.9,31.1z M7,26
			v2.5l0.6,0.1h1.8l0.6-0.1V26h1.6v6.6H10v-3l-0.6-0.1H7.6L7,29.6v1.2c0,0.4,0,0.8,0.1,1.2v0.6H5.6V32l0.1-1.3v-2.5V26H7z M12.4,26
			h0.7c0.6,0,1.2,0.1,1.7,0.1s1.1,0,1.7-0.1h0.7v0.8h-1.7v5.8H14v-5.9h-1.7v-0.4C12.3,26.3,12.4,26,12.4,26z M18.8,27.8l0.4-1.2
			l0.2-0.6h0.8l0.2,0.6l0.4,1.2c0.6,1.4,1.1,2.8,1.7,4l0.4,0.7h-1.6l-0.2-0.6l-0.4-0.7l-0.2-0.4L20,30.7h-1.2l-0.5,0.1l-0.1,0.4
			c-0.1,0.2-0.2,0.5-0.3,0.8l-0.2,0.6h-1l0.4-0.6C17.7,30.8,18.2,29.4,18.8,27.8z M19,30h1.1l0.3-0.1l-0.2-0.4l-0.4-1.2l-0.3-0.5
			l-0.2,0.5l-0.4,1.2L18.7,30C18.7,30,19,30,19,30z M25.3,26v3l0.6-0.6l0.6-0.7c0.4-0.4,0.6-0.8,0.8-1.1l0.4-0.5H29l-0.5,0.6
			l-0.7,0.7l-0.9,1.1l-0.4,0.3l0.5,0.9l1,1.3l0.6,1l0.4,0.5h-1.9L26.8,32c-0.2-0.2-0.3-0.5-0.6-0.9l-0.6-0.9l-0.4-0.6v2.3l0.1,0.6
			h-1.5V26C23.8,26,25.3,26,25.3,26z M29.9,31.2v-4.9l-0.1-0.5l0.8,0.1H33l0.5-0.1v0.8h-0.6l-1.1-0.1h-0.5v2h2.2v0.8l-0.6-0.1h-1.6
			v2.3h1.6l0.6-0.1v0.8h-2.9l-0.8,0.1l0.1-0.5C29.9,31.8,29.9,31.2,29.9,31.2z M34,26h0.7c0.6,0,1.2,0.1,1.7,0.1s1.1,0,1.7-0.1h0.7
			v0.8h-1.7v5.8h-1.4v-5.9H34V26z M39.7,31.1c0.2,0,0.4,0.1,0.5,0.2c0.2,0.2,0.2,0.3,0.2,0.5c0,0.2-0.1,0.4-0.2,0.6
			c-0.2,0.2-0.4,0.2-0.5,0.2s-0.4-0.1-0.5-0.2c-0.2,0-0.2-0.3-0.2-0.6c0-0.2,0.1-0.4,0.2-0.5S39.6,31.1,39.7,31.1z M46.4,27
			c-0.4-0.3-0.7-0.5-1.2-0.5c-0.6,0-1.2,0.3-1.6,0.9c-0.4,0.5-0.5,1.1-0.5,1.9c0,0.5,0.1,1.1,0.3,1.5s0.4,0.7,0.8,1
			c0.4,0.3,0.8,0.3,1.2,0.3c0.5,0,1.1-0.2,1.5-0.5l0.3-0.2l0.2,0.1L47,32l-0.1,0.4l-0.2,0.1c-0.4,0.2-1.1,0.3-1.6,0.3
			c-0.6,0-1.2-0.1-1.7-0.3c-0.4-0.2-0.7-0.4-1.1-0.6c-0.3-0.3-0.5-0.6-0.6-0.9c-0.2-0.4-0.2-0.9-0.2-1.4c0-1.1,0.4-2,1.1-2.6
			c0.6-0.6,1.5-0.9,2.7-0.9c0.6,0,1.1,0.1,1.5,0.3l0.4,0.2L47,27l-0.2,0.6h-0.1C46.7,27.2,46.5,27.1,46.4,27z M51.5,25.9
			c1.1,0,1.9,0.3,2.4,0.8c0.3,0.3,0.6,0.6,0.7,1c0.2,0.4,0.3,1,0.3,1.5c0,1.1-0.4,1.9-1.1,2.6c-0.6,0.6-1.5,1-2.6,1
			s-1.9-0.3-2.5-0.9s-1.1-1.4-1.1-2.4c0-1.1,0.4-1.9,1.1-2.6C49.5,26.2,50.4,26,51.5,25.9z M49.8,31.2c0.2,0.3,0.4,0.4,0.6,0.6
			c0.2,0.2,0.6,0.2,1,0.2c0.7,0,1.2-0.3,1.6-1c0.3-0.5,0.4-1.2,0.4-1.9s-0.2-1.3-0.4-1.9c-0.2-0.3-0.3-0.4-0.6-0.6s-0.6-0.2-1.1-0.2
			c-0.7,0-1.2,0.3-1.6,1c-0.3,0.5-0.4,1.1-0.4,1.9C49.3,30.2,49.5,30.8,49.8,31.2z M55.6,32.5l0.2-0.6c0.2-0.6,0.2-1.2,0.3-1.8
			l0.2-1.2l0.3-2.2l0.1-0.9h0.7l0.4,1l0.6,1.4c0.2,0.6,0.5,1.1,0.7,1.5l0.4,0.6l0.4-0.6l0.8-1.5c0.4-0.7,0.6-1.3,0.8-1.7l0.3-0.6
			h0.9l0.1,0.6c0.1,0.6,0.2,1.4,0.3,2.4c0.2,1.1,0.3,1.9,0.4,2.7l0.2,0.8H62v-0.6c-0.1-0.9-0.1-1.5-0.2-1.6l-0.2-1.3l-0.1-0.8
			l-0.4,0.8L60.5,30c-0.4,0.7-0.6,1.2-0.8,1.7l-0.3,0.7H59L58.8,32c-0.1-0.2-0.2-0.5-0.4-0.9L57.8,30l-0.6-1l-0.4-0.7V29l-0.2,1.3
			c-0.1,0.6-0.1,1.2-0.2,1.6v0.6C56.4,32.5,55.6,32.5,55.6,32.5z M65.2,31.1c0.2,0,0.4,0.1,0.5,0.2c0.2,0.2,0.2,0.3,0.2,0.5
			c0,0.2-0.1,0.4-0.2,0.6c-0.2,0.2-0.4,0.2-0.5,0.2s-0.4-0.1-0.6-0.2c-0.2-0.2-0.2-0.4-0.2-0.6c0-0.2,0.1-0.4,0.2-0.5
			S64.9,31.1,65.2,31.1z M68.7,27v2.4c0,0.4,0,0.8,0.1,1.2c0,0.3,0.2,0.5,0.3,0.7c0.3,0.4,0.7,0.6,1.4,0.6c0.6,0,1.2-0.3,1.5-0.8
			c0.2-0.4,0.3-1,0.4-1.8v-3.4h0.9v2.2c0,1.1,0,1.8-0.1,2c-0.1,0.8-0.4,1.4-0.7,1.8c-0.3,0.2-0.6,0.4-1,0.5
			c-0.4,0.1-0.7,0.2-1.1,0.2c-0.9,0-1.6-0.2-2.1-0.7c-0.3-0.3-0.5-0.6-0.6-1c-0.1-0.3-0.1-0.6-0.1-1.2V26h1.5v0.4L68.7,27L68.7,27z
			 M75.4,27.8l0.4-1.2L76,26h0.8l0.2,0.6l0.4,1.2c0.6,1.4,1.1,2.8,1.7,4l0.4,0.7h-1.7l-0.2-0.6l-0.4-0.7L77,30.8l-0.5-0.1h-1.2
			l-0.5,0.1l-0.1,0.4c-0.1,0.2-0.2,0.5-0.3,0.8l-0.2,0.6h-1l0.4-0.6C74.2,30.8,74.8,29.4,75.4,27.8L75.4,27.8z M75.6,30h1.1l0.3-0.1
			l-0.2-0.4l-0.4-1.2l-0.2-0.5L76,28.3l-0.5,1.2l-0.2,0.4L75.6,30L75.6,30z"/>
	</g>
</g>
</svg>
