<svg xmlns="http://www.w3.org/2000/svg" width="260.8" height="136.1"><path d="M129.6 129.4l-7.4-2.9-.2.1 2.4 3.9H12.9l2.4-3.9-.2-.1-7.4 2.9c-2.6.6-5.2 1.1-7.7 1.7 2.6.6 5.2 1.1 7.7 1.7l7.4 2.9.2-.1-2.4-3.9h111.5l-2.4 3.9.2.1 7.4-2.9c2.6-.6 5.2-1.1 7.7-1.7-2.6-.5-5.1-1.1-7.7-1.7zm34.7-13.7l-1.9 1.8.9.9 1.9-1.9-.7-.1-.2-.7z"/><path d="M162.4 117.5l1.9-1.9-1.1-4.4h-.2l-3.1 7.3c-1.4 2.2-2.8 4.5-4.3 6.7 2.2-1.4 4.4-2.9 6.7-4.3l7.3-3.2.1-.2-4.5-1.1-1.9 1.9-.9-.8z"/><path d="M253.3 24.7l-7.3 3.2v.2l4.5 1.1-86.1 86.5.2.7.7.2 86.1-86.5 1.1 4.5.2-.1 3.1-7.3c1.4-2.2 2.8-4.5 4.3-6.7-2.3 1.4-4.5 2.8-6.8 4.2zM240.7 17c0-.6-.4-1.2-1.1-1.5-.5-.3-1.3-.4-2-.4h-.1c-.1 0-8.8.8-11.5.1-.1 0-.3-.2-.5-.3-.3-.9-.9-2.7-1.3-3.3-.1-.2-.3-.4-.5-.6 0-.1-.1-.2-.2-.3-.1-.1-.2-.1-.3-.2-3-3.2-11.2-5.9-18.5-7.5-11-2.5-17.8-3.4-25.7-2-.1 0-.1 0-.2.1-.7.3-1.1.9-1.4 1.5-.4.7-.7 1.1-1.4 1.2h-.1c-.1 0-.2-.1-.3-.1-.5-.2-.7-.5-1.1-1.1-.3-.6-.7-1.2-1.4-1.5-.1 0-.1 0-.2-.1-7.8-1.3-17.3-.7-28.3 1.8-8.1 1.9-17.4 5.2-19.4 8.7-.4.6-1 2.2-1.2 3.1l-.5.5c-2.7.7-11.4 0-11.5 0h-.1c-1 0-1.8.1-2.4.4-.1 0-.1 0-.2.1-.4.2-.8.5-.9.9L2.3 117.3c-.7.4-1.2 1-1.2 1.7 0 1.2 1.4 2.2 3.2 2.2h5.1c.3 0 .6-.1.7-.4l1.8-1.7c.9 0 1.9 0 2.6-.1.7-.1 1.3-.1 1.7-.2.3-.1 1.4-.6 1.6-1.3.2-.8.9-2.5 1.2-3.1 2-3.5 17.1-8.8 32.8-10 5.5-.4 10.4-.3 14.4.4.2.1.4.4.6.8.4.8 1.1 1.9 2.8 2h.1c1.7-.1 2.4-1.3 2.8-2 .2-.3.4-.7.6-.8 1.2-.2 2.5-.4 3.9-.5 17.5-1.4 40.7 5.6 43.3 10.1.3.5 1 2.3 1.2 3.1.2.7 1.4 1.3 1.6 1.3 1.5.4 4.3.4 6.8.3l-.7.7c-.3.3-.3.8 0 1.1.1.1.1.1.2.1.2.2.4.2.6.2h5.5c1.4-.1 2.5-.8 2.7-1.7L240.3 18c.2-.2.3-.4.2-.7.1 0 .2-.2.2-.3zm-3.1-.5c.9 0 1.5.3 1.5.5v.1l-101 100.8c-.6-.6-1.6-1-2.7-1h-.6c-3.7.3-8 .5-10.3.2L225.3 16.6l.1-.1c.1 0 .2.1.2.1 2.9.7 11.3 0 12-.1zm-115.4 96.9c-.1-.1-.2-.3-.3-.4l101-100.7c.3.6 1 2.3 1.2 3.1 0 .1.1.1.1.2L123.4 116.2c-.4-.9-.9-2.2-1.2-2.8zM9.5 119.3H4.4c-.7 0-1.1-.2-1.3-.3.2-.1.6-.3 1.3-.3.5 0 2.9.2 5.5.3l-.4.3zm8.1-5.9c-.4.7-1 2.4-1.3 3.3-.1.1-.3.2-.4.2-.3.1-.8.2-1.4.2-2.9.2-8-.1-9.5-.2l105-100c.3-.1.9-.2 1.8-.2.6 0 6.1.5 9.8.3l-96.1 91.3c-4.1 1.7-7 3.5-7.9 5.1zm34.1-10.9c-4.8.4-9.6 1.1-14.5 2.2-2.9.7-5.6 1.4-8.1 2.2l95.3-90.6c.4-.2.8-.5.9-.9.1-.2.2-.4.2-.6.3-.9.8-2.2 1-2.6 1.4-2.5 9-5.8 18.4-8 9.8-2.3 18.4-3 25.8-2.1L66.3 102.8c-4.1-.6-9.1-.7-14.6-.3zm16.1 1l104.8-101c.2.2.4.5.5.8.3.4.6 1 1.1 1.4L69.4 105.6c-.4-.2-.6-.5-.9-1-.2-.4-.4-.7-.7-1.1zm34.9 1.3c-9-2.1-18.3-2.9-25.6-2.3H77L181 2.2c7.4-1 13.5 0 23.3 2.3 8.1 1.8 14.8 4.4 17.5 6.7L120.8 112c-2.9-2.6-9.6-5.3-18.1-7.2zm32.7 14.6h-3.3l.5-.4c1.5-.1 2.6-.2 2.8-.2.7 0 1.1.2 1.3.3-.2.1-.6.3-1.3.3zM216.2 82.7v5.9h.8l-.1 3.6h-1.4l-.1-2.3h-4.8l-.1 2.3h-1.4l-.1-3.6h.7c.3-.5.6-1 .7-1.5.2-.8.4-1.7.4-2.6v-1.8h5.4zm-3.7 2.4c0 .8-.1 1.5-.3 2.2-.1.5-.3.9-.5 1.3h2.8v-4.5h-2v1zM224.5 82.7V90h-1.8v-5.8h-2v1.6c0 1.9-.2 3.2-1.1 3.8-.4.4-1 .6-1.8.6l-.2-1.4c.3-.1.6-.2.8-.4.5-.4.6-1.3.6-2.7v-2.9h5.5zM228.1 82.7v2.6c0 1.2 0 1.9-.1 3h.1c.4-.9.6-1.4 1-2.1l1.8-3.4h2.2V90h-1.7v-2.6c0-1.2 0-1.7.1-3.1h-.1c-.4.9-.6 1.4-1 2.1-.6 1.1-1.2 2.4-1.9 3.6h-2.2v-7.3h1.8zM236.9 82.7v2.8h2.8v-2.8h1.8V90h-1.8v-3.1h-2.8V90H235v-7.3h1.9zM249.1 88.2c0 .7 0 1.3.1 1.7h-1.7l-.1-.8c-.4.6-1.2 1-2.2 1-1.5 0-2.3-1.1-2.3-2.2 0-1.8 1.6-2.8 4.3-2.7v-.1c0-.5-.2-1.3-1.5-1.3-.7 0-1.5.2-2 .5l-.4-1.2c.5-.3 1.5-.6 2.6-.6 2.3 0 3 1.5 3 3.1v2.6zm-1.8-1.8c-1.3 0-2.5.3-2.5 1.4 0 .7.5 1 1 1 .7 0 1.3-.5 1.4-1v-1.4zM206.7 98.9v7.3h-1.8v-5.8h-2v1.6c0 1.9-.2 3.2-1.1 3.8-.4.4-1 .6-1.8.6l-.2-1.4c.3-.1.6-.2.8-.4.5-.4.6-1.3.6-2.7V99h5.5zM210.4 98.9v2.9h1.1c.3-1.8 1.6-3 3.3-3 2 0 3.3 1.5 3.3 3.7 0 2.5-1.6 3.9-3.4 3.9-1.8 0-3.1-1.2-3.3-3.2h-1v3h-1.8v-7.3h1.8zm4.4 6.1c1 0 1.5-1.2 1.5-2.5 0-1.2-.5-2.4-1.5-2.4-1.1 0-1.6 1.2-1.6 2.5 0 1.2.5 2.4 1.6 2.4zM225.6 96.9c-.4.1-1.1.2-1.6.3-1.1.1-1.9.5-2.4 1.1-.4.6-.7 1.4-.8 2.1h.1c.5-.9 1.4-1.5 2.4-1.5 1.9 0 3.2 1.4 3.2 3.6 0 2.4-1.4 3.8-3.6 3.8-2.6 0-3.6-2.2-3.6-4.8 0-1.8.4-3.2 1.4-4.2.7-.9 1.7-1.3 3.1-1.5.6-.1 1.5-.2 2-.3l-.2 1.4zm-1 5.7c0-1.1-.4-2.4-1.7-2.4-.6 0-1.1.3-1.3.8-.2.4-.4.9-.4 1.5 0 1.1.5 2.6 1.7 2.6s1.7-1.4 1.7-2.5zM233.6 104.4c0 .7 0 1.3.1 1.7H232l-.1-.8c-.4.6-1.2 1-2.2 1-1.5 0-2.3-1.1-2.3-2.2 0-1.8 1.6-2.8 4.3-2.7v-.1c0-.5-.2-1.3-1.5-1.3-.7 0-1.5.2-2 .5l-.4-1.2c.5-.3 1.5-.6 2.6-.6 2.3 0 3 1.5 3 3.1v2.6zm-1.8-1.8c-1.3 0-2.5.3-2.5 1.4 0 .7.5 1 1 1 .7 0 1.3-.5 1.4-1v-1.4zM241.5 106.1h-1.8v-2.9h-.7c-.5 0-.9.2-1.1.5-.5.4-.6 1.2-.9 1.8l-.3.6h-2c.2-.2.3-.5.4-.8.3-.6.5-1.6 1.1-2.1.2-.2.5-.4.9-.5-.9-.1-1.9-.7-1.9-1.8 0-.8.5-1.3 1.1-1.7.6-.3 1.6-.5 2.6-.5s1.9.1 2.6.2v7.2zm-1.8-6.1c-.3 0-.5-.1-.9-.1-.8 0-1.6.3-1.6 1.1s.9 1.1 1.6 1.1h.9V100z"/><g><path d="M47.3 117.4l-1.9 1-.3-1.5 2.5-1.2h1.6V126h-1.9v-8.6zM53.2 124c.4.2 1.4.6 2.4.6 1.5 0 2.1-.8 2.1-1.7 0-1.2-1.2-1.8-2.4-1.8h-.9v-1.4h.9c.9 0 2-.4 2-1.4 0-.7-.5-1.3-1.7-1.3-.8 0-1.7.4-2.1.7l-.4-1.4c.6-.4 1.8-.8 3-.8 2.2 0 3.3 1.2 3.3 2.5 0 1.1-.6 2-1.9 2.4 1.3.2 2.3 1.2 2.3 2.6 0 1.8-1.5 3.2-4 3.2-1.3 0-2.4-.4-2.9-.7l.3-1.5zM64.9 126.2c-2.4 0-3.7-2.2-3.7-5.3 0-3.2 1.4-5.4 3.8-5.4 2.5 0 3.7 2.2 3.7 5.3 0 3.3-1.3 5.4-3.8 5.4zm.1-1.5c1.2 0 1.8-1.4 1.8-3.9 0-2.4-.6-3.8-1.8-3.8-1.1 0-1.8 1.4-1.8 3.8 0 2.5.7 3.9 1.8 3.9zM70.4 119.1h2.2l1 3c.1.5.4 1.2.5 1.8.1-.5.4-1.4.7-2.1l.9-2.7h2.2l.5 6.9h-1.6l-.1-3c0-.7-.1-1.6-.1-2.4-.2.8-.3 1.2-.7 2.3l-1.1 3.1h-1.3l-1-3c-.2-.7-.5-1.7-.6-2.3h-.1c0 .8 0 1.8-.1 2.4l-.1 3H70l.4-7zM80.1 119.1h2.2l1 3c.1.5.4 1.2.5 1.8.1-.5.4-1.4.7-2.1l.9-2.7h2.2l.4 6.9h-1.6l-.1-3c0-.7-.1-1.6-.1-2.4-.2.8-.3 1.2-.7 2.3l-1.1 3.1h-1.3l-1-3c-.2-.7-.5-1.7-.6-2.3h-.1c0 .8 0 1.8-.1 2.4l-.1 3h-1.6l.5-7z"/></g></svg>