<?xml version="1.0" encoding="utf-8"?>

<!DOCTYPE svg PUBLIC "-//W3C//DTD SVG 1.1//EN" "http://www.w3.org/Graphics/SVG/1.1/DTD/svg11.dtd">
<svg version="1.1" id="Layer_1" xmlns="http://www.w3.org/2000/svg" xmlns:xlink="http://www.w3.org/1999/xlink" x="0px" y="0px"
	 viewBox="0 0 1733.944 1653.311" enable-background="new 0 0 1733.944 1653.311" xml:space="preserve">
<path id="path1575" d="M1145.659,26.655c-3.404,0.042-8.427,10.178-11.897,10.448c-3.914,0.676-11.827-10.078-15.641-9.209
	c-3.869,0.881,7.061,58.81,3.296,59.883c-3.812,1.086-24.216-51.459-27.922-50.183c-3.744,1.288,8.576,45.562,4.94,47.037
	c-3.665,1.487-4.995,5.167-8.55,6.836c-3.577,1.679-12.108-8.671-15.573-6.814c-3.48,1.864,1.561,16.655-1.806,18.69
	c-3.376,2.04-10.033-3.215-13.295-1.01c-3.266,2.207-17.753-12.102-20.905-9.738c-3.151,2.363,0.931,13.562-2.107,16.075
	c-3.034,2.509-18.226-9.068-21.147-6.417c-2.914,2.645,7.057,18.825,4.255,21.604c-2.793,2.771,9.379,18.82,6.697,21.716
	c-2.672,2.887-33.256-19.625-35.817-16.621c-2.552,2.993,7.562,16.352,5.122,19.455c-2.432,3.091,11.089,17.396,8.767,20.589
	c-2.313,3.181-4.876,4.981-7.079,8.256c-2.196,3.264-33.009-12.402-35.096-9.053c-2.081,3.339-13.386,1.66-15.359,5.078
	c-1.967,3.409,35.498,28.56,33.639,32.04c-1.855,3.472-40.949-12.399-42.696-8.862c-1.744,3.53,2.122,10.139,0.485,13.726
	c-1.635,3.584-15.79,2.196-17.317,5.83c-1.527,3.632-11.925,4.546-13.345,8.221c-1.42,3.677,13.455,14.082,12.142,17.796
	c-1.314,3.718-19.435,2.448-20.641,6.196c-1.208,3.756-1.777,8.621-2.877,12.399c-1.103,3.79,37.971,18.949,36.977,22.755
	c-0.997,3.821,8.8,9.824,7.913,13.654c-0.891,3.849,7.648,8.978,6.868,12.829c-0.784,3.874-7.645,5.795-8.316,9.665
	c-0.676,3.897-47.837,0.357-48.398,4.243c-0.565,3.917,34.067,12.515,33.618,16.411c-0.453,3.934-9.084,6.887-9.417,10.793
	c-0.521,3.783-23.344,5.337-23.722,9.184c-0.374,3.803,7.823,8.808,7.588,12.664c-0.233,3.818,33.822,8.833,33.726,12.692
	c-0.095,3.826-36.997,7.164-36.956,11.021c0.04,3.83-16.119,8.81-15.945,12.661c0.173,3.829-3.978,8.977-3.672,12.817
	c0.304,3.823,11.741,7.501,12.178,11.327c0.435,3.813,14.87,6.288,15.437,10.094c0.566,3.798,36.53,1.329,37.228,5.111
	c0.697,3.778-25.391,12.457-24.561,16.21c0.829,3.754-1.432,8.263-0.47,11.983c0.963,3.723,31.581-1.315,32.678,2.364
	c1.099,3.687-7.729,9.6-6.495,13.234c1.237,3.645-19.021,14.753-17.647,18.335c1.378,3.596,28.862-3.859,30.378-0.336
	c1.522,3.538-46.559,29.797-44.898,33.253c1.669,3.472,34.909-8.458,36.719-5.078c1.819,3.396-25.103,23.67-23.141,26.964
	c1.972,3.31,1.909,9.617,4.026,12.814c2.127,3.212,43.632-20.587,45.906-17.5c2.285,3.101-17.919,23.62-15.485,26.584
	c2.443,2.976,22.564-9.279,25.157-6.451c2.6,2.836-22.962,33.809-20.209,36.486c2.756,2.68,37.736-29.246,40.646-26.735
	c2.907,2.51,7.118,1.569,10.179,3.899c3.052,2.324-10.161,26.746-6.955,28.881c3.189,2.123-5.75,26.21-2.408,28.137
	c3.314,1.911,35.194-49.375,38.659-47.668c3.427,1.688-11.428,42.814-7.854,44.293c3.524,1.458,2.914,18.31,6.583,19.556
	c3.606,1.225,19.022-33.46,22.768-32.449c3.672,0.991,5.624,8.715,9.431,9.492c3.725,0.709,7.153,6.257,10.921,6.567
	c3.772,0.311,7.598-34.008,11.383-34.066c3.782-0.058,5.045,0.289,8.811-0.109c3.764-0.398,12.475,37.596,16.192,36.889
	c3.723-0.708,4.387-15.47,8.033-16.459c3.748-1.257,7.263-2.346,10.911-3.755c3.686-1.423,16.367,18.052,19.95,16.479
	c3.615-1.588-4.859-29.587-1.349-31.323c3.537-1.749,16.628,14.713,20.058,12.818c3.452-1.906,6.292-5.759,9.635-7.807
	c3.36-2.058,18.291,12.276,21.541,10.079c3.263-2.205-9.325-27.943-6.172-30.282c3.161-2.345,9.179-1.246,12.228-3.721
	c3.055-2.479-11.013-24.681-8.07-27.284c2.945-2.605,38.855,30.283,41.688,27.558c2.833-2.725-8.984-21.086-6.263-23.925
	c2.719-2.837-19.604-28.204-16.997-31.15c2.604-2.942,22.403,9.516,24.894,6.471c2.487-3.04-8.578-16.176-6.203-19.314
	c2.37-3.131,40.546,19.735,42.804,16.512c2.253-3.216-30.223-29.988-28.081-33.29c2.137-3.294,7.72-3.797,9.746-7.172
	c2.021-3.367,16.475,0.684,18.385-2.758c1.905-3.433-7.506-12.711-5.711-16.214c1.791-3.495,36.205,8.825,37.886,5.266
	c1.677-3.551-48.917-30.651-47.349-34.261c1.564-3.603,18.307-0.088,19.761-3.744c1.452-3.65,5.499-5.853,6.842-9.551
	c1.341-3.693,11.679-4.024,12.91-7.76c1.23-3.732-11.864-11.63-10.743-15.4c1.12-3.767,13.373-4.037,14.384-7.837
	c1.01-3.799-5.016-9.073-4.115-12.9c0.901-3.827,34.873-0.467,35.664-4.318c0.792-3.852-44.232-16.371-43.55-20.242
	c0.683-3.873,58.819,1.463,59.392-2.424c0.574-3.892-61.224-16.103-60.761-20.004c0.464-3.908,50.475-2.472,50.828-6.384
	c0.354-3.92,10.826-7.756,11.068-11.675c0.243-3.929-20.397-9.387-20.266-13.311c0.131-3.936,9.852-8.068,9.87-11.992
	c0.018-3.939-48.104-7.217-48.2-11.139c-0.097-3.938-2.248-6.873-2.46-10.79c-0.213-3.935,6.255-7.461,5.925-11.369
	c-0.331-3.927,6.887-7.936,6.437-11.831c-0.452-3.916,23.92-10.625,23.349-14.503c-0.255-3.848-23.52-5.069-23.98-8.936
	c-0.457-3.832,6.117-8.083,5.463-11.92c-0.649-3.806,15.31-10.874,14.471-14.672c-0.834-3.773-19.318-3.189-20.336-6.94
	c-1.012-3.732-12.884-3.511-14.074-7.208c-1.185-3.683,38.41-21.569,37.052-25.205c-1.354-3.627,3.514-11.023,1.992-14.591
	c-1.52-3.564-36.819,7.649-38.502,4.157c-1.684-3.492,21.111-19.84,19.267-23.247c-1.845-3.412-1.816-9.086-3.817-12.401
	c-2.006-3.322,0.804-11.24-1.355-14.452c-2.166-3.223-42.816,20.457-45.133,17.358c-2.325-3.111-6.713-3.357-9.186-6.33
	c-2.484-2.987,28.487-35.494,25.858-38.33c-2.642-2.85-32.621,20.696-35.405,18.014c-2.798-2.696,17.111-30.698,14.174-33.212
	c-2.952-2.526-36.635,33.597-39.724,31.269c-3.101-2.338,28.414-53.998,25.18-56.122c-3.244-2.13-10.4-1.711-13.773-3.612
	c-3.377-1.904-31.669,44.181-35.172,42.521c-3.499-1.658-2.836-8.769-6.456-10.17c-3.605-1.395,4.994-38.109,1.273-39.236
	c-3.694-1.118-17.399,36.6-21.203,35.761c-3.761-0.83-0.56-39.191-4.424-39.735c-3.807-0.536-11.613,41.736-15.516,41.49
	C1152.094,77.396,1149.578,26.606,1145.659,26.655z M559.139,32.933c-3.93,0.097-8.874,10.309-12.721,10.753
	c-3.894,0.449-11.458-10.547-15.26-9.76c-3.829,0.792,7.033,58.693,3.304,59.809c-3.738,1.118-25.438-50.859-29.069-49.434
	c-3.625,1.424,11.135,44.925,7.623,46.637c-3.497,1.704-4.056,5.225-7.433,7.197c-3.357,1.96-12.555-7.69-15.786-5.484
	c-3.209,2.191,3.747,16.118,0.668,18.534c-3.056,2.399-10.087-2.164-13.009,0.439c-2.901,2.585-19.131-9.669-21.894-6.898
	c-2.745,2.753,2.996,13.172,0.395,16.092c-2.587,2.905-19.362-6.207-21.801-3.153c-2.43,3.041,10.067,17.347,7.791,20.52
	c-2.271,3.165,12.559,16.752,10.446,20.032c-2.111,3.278-36.141-13.545-38.088-10.167c-1.95,3.381,10.496,14.582,8.717,18.047
	c-1.785,3.475,14.379,14.636,12.772,18.18c-1.615,3.562-3.599,5.5-5.03,9.115c-1.44,3.64-34.888-4.996-36.135-1.318
	c-1.258,3.712-12.695,4.938-13.749,8.671c-1.066,3.776,41.606,18.377,40.755,22.157c-0.863,3.832-42.77-0.805-43.405,3.013
	c-0.669,3.786,4.919,8.88,4.361,12.706c-0.555,3.805-14.523,6.329-14.968,10.169c-0.443,3.82-10.165,7.493-10.499,11.344
	c-0.332,3.832,16.856,9.593,16.631,13.451c-0.224,3.841-17.982,7.549-18.099,11.41c-0.117,3.846,0.685,8.572,0.673,12.434
	c-0.012,3.849,41.728,7.537,41.82,11.397c0.092,3.849,11.161,6.853,11.357,10.709c0.196,3.846,9.81,6.383,10.109,10.231
	c0.298,3.84-5.782,7.517-5.382,11.356c0.4,3.832-45.963,13.135-45.462,16.961c0.501,3.821,36.156,2.682,36.759,6.492
	c0.602,3.807-6.96,8.774-6.257,12.566c0.703,3.79-20.564,12.129-19.76,15.901c0.803,3.771,10.093,5.98,10.997,9.728
	c0.904,3.749,34.979-1.208,35.984,2.514c1.006,3.724-33.458,17.354-32.352,21.045c1.107,3.695-13.111,12.788-11.903,16.447
	c1.209,3.664-1.472,9.568-0.162,13.191c1.312,3.629,13.264,4.057,14.677,7.641c1.415,3.59,15.979,2.224,17.495,5.765
	c1.52,3.548,35.733-7.833,37.354-4.339c1.624,3.502-21.478,18.428-19.752,21.87c1.73,3.451,0.634,8.383,2.466,11.771
	c1.836,3.396,30.414-8.719,32.353-5.391c1.943,3.336-5.196,11.255-3.15,14.517c2.051,3.27-15.111,18.75-12.957,21.942
	c2.159,3.2,27.335-10.131,29.597-7.014c2.267,3.124-38.996,39.164-36.625,42.2c2.375,3.042,32.324-15.66,34.803-12.711
	c2.483,2.953-19.859,28.172-17.272,31.028c2.59,2.859,3.546,8.849,6.24,11.605c2.696,2.758,39.109-28.275,41.908-25.625
	c2.8,2.65-13.589,26.335-10.686,28.873c2.902,2.536,20.839-12.743,23.844-10.324c3,2.416-18.012,36.628-14.908,38.923
	c3.096,2.289,33.709-33.85,36.907-31.687c3.187,2.156,7.588,0.969,10.876,2.996c3.274,2.018-7.613,27.591-4.239,29.476
	c3.355,1.875-4.307,26.323-0.853,28.063c3.431,1.728,32.93-50.983,36.458-49.393c3.5,1.577-10.255,43.109-6.659,44.546
	c3.563,1.424,2.501,18.104,6.158,19.386c3.619,1.269,19.254-33.253,22.964-32.127c3.959,0.861,6.284,8.392,10.296,8.871
	c4.018,0.48,7.999,5.824,12.042,5.929c4.043,0.105,6.397-34.374,10.435-34.635c4.034-0.261,5.439,0.024,9.439-0.594
	c3.85-0.642,14.581,36.841,18.283,35.957c3.79-0.905,3.949-15.725,7.584-16.873c3.708-1.172,7.157-2.221,10.705-3.634
	c3.605-1.436,16.896,17.65,20.337,15.977c3.483-1.694-6.399-29.226-3.083-31.151c3.343-1.941,17.657,13.443,20.831,11.28
	c3.189-2.173,5.748-6.41,8.768-8.793c3.025-2.387,19.958,9.652,22.815,7.067c2.854-2.583-13.303-26.284-10.616-29.051
	c2.679-2.759,8.782-2.688,11.296-5.616c2.503-2.916-15.577-21.953-13.236-25.024c2.328-3.055,44.084,21.975,46.253,18.778
	c2.157-3.178-13.23-18.705-11.229-22.01c1.989-3.286-25.506-22.895-23.67-26.294c1.825-3.38,23.876,4.339,25.551,0.859
	c1.667-3.463-12.272-13.445-10.753-16.995c1.513-3.534,44.083,9.395,45.45,5.786c1.363-3.597-36.773-21.388-35.554-25.047
	c1.217-3.651,6.448-5.414,7.524-9.116c1.074-3.698,16.057-3.398,16.992-7.136c0.935-3.739-10.59-10.151-9.794-13.917
	c0.797-3.774,37.232-0.925,37.891-4.715c0.661-3.803-55.354-16.271-54.832-20.078c0.525-3.828,17.57-4.812,17.957-8.632
	c0.389-3.848,3.657-6.932,3.906-10.76c0.252-3.863,10.07-6.971,10.181-10.802c0.112-3.874-14.705-7.494-14.735-11.321
	c-0.031-3.88,11.592-7.653,11.415-11.472c-0.099-3.909-7.366-7.348-7.575-11.288c-0.207-3.907,33.347-10.183,33.031-14.114
	c-0.314-3.902-47.044-3.381-47.465-7.301c-0.419-3.894,56.921-14.869,56.396-18.774c-0.522-3.883-63.293,1.403-63.92-2.485
	c-0.624-3.87,47.871-16.179,47.142-20.048c-0.725-3.854,8.322-10.337,7.493-14.184c-0.826-3.835-22.163-3.484-23.093-7.306
	c-0.927-3.813,7.344-10.362,6.314-14.157c-1.028-3.789-48.3,5.801-49.43,2.036c-1.13-3.761-3.998-6.095-5.23-9.827
	c-1.232-3.73,4.072-8.884,2.738-12.579c-1.335-3.696,4.586-9.481,3.148-13.136c-1.439-3.658,20.296-16.655,18.754-20.266
	c-1.544-3.616-24.156,2.272-25.803-1.291c-1.65-3.569,3.222-9.862,1.468-13.373c-1.758-3.518,11.539-14.85,9.676-18.303
	c-1.868-3.462-19.56,1.973-21.533-1.418c-1.979-3.401-13.542-0.403-15.626-3.726c-2.091-3.333,32.012-30.269,29.814-33.518
	c-2.205-3.259,0.952-11.406-1.36-14.574c-2.32-3.178-34.242,15.596-36.67,12.515c-2.436-3.09,16.368-23.908,13.823-26.894
	c-2.552-2.994-3.607-8.468-6.269-11.351c-2.668-2.889-1.374-11.101-4.153-13.873c-2.784-2.776-38.2,28.196-41.095,25.544
	c-2.898-2.655-7.408-2.227-10.418-4.75c-3.01-2.524,21.804-39.951,18.682-42.337c-3.119-2.384-28.806,25.789-32.038,23.548
	c-3.224-2.235,12.123-32.982,8.788-35.067c-3.324-2.079-31.644,38.409-35.079,36.485c-3.418-1.914,21.258-57.184,17.731-58.939
	c-3.505-1.744-10.121-0.326-13.734-1.907c-3.583-1.567-27.643,46.886-31.333,45.485c-3.653-1.387-4.038-8.726-7.797-9.944
	c-3.714-1.204,3.2-38.297-0.617-39.33c-4.189-1.112-16.708,37.047-20.828,36.343c-4.258-0.727-3.574-39.23-7.757-39.539
	c-4.291-0.317-35.724,21.099-39.933,21.203C531.395,50.459,559.139,32.933,559.139,32.933z M1519.201,494.665
	c-3.896,0.233-7.885,10.28-11.715,10.702c-3.876,0.427-10.312-10.661-14.12-10.047c-3.846,0.62,3.126,58.106-0.649,58.912
	c-3.806,0.813-20.267-52.053-24-51.058c-3.757,1.002,5.149,45.256,1.467,46.438c-3.7,1.188-5.376,4.725-8.997,6.089
	c-3.634,1.368-11.24-9.413-14.793-7.875c-3.561,1.542,0.055,16.476-3.424,18.182c-3.482,1.708-9.621-3.972-13.018-2.105
	c-3.397,1.867-16.287-13.436-19.598-11.416c-3.307,2.018-0.404,13.368-3.624,15.533c-3.214,2.161-16.926-10.648-20.051-8.347
	c-3.118,2.296,4.97,19.123,1.943,21.552c-3.02,2.423,7.153,19.402,4.225,21.951c-2.92,2.542-30.408-22.677-33.235-20.015
	c-2.818,2.654,5.604,16.795,2.88,19.561c-2.716,2.758,8.894,18.222,6.273,21.087c-2.614,2.856-5.332,4.35-7.849,7.305
	c-2.51,2.948-30.848-15.758-33.261-12.717c-2.407,3.033-13.256,0.139-15.565,3.259c-2.303,3.113,31.457,31.831,29.253,35.025
	c-2.2,3.188-38.597-16.631-40.697-13.368c-2.096,3.258,0.94,10.149-1.054,13.476c-1.992,3.324-15.67,0.445-17.559,3.832
	c-1.888,3.385-12.159,3.193-13.942,6.636c-1.783,3.443,11.614,15.224,9.937,18.719c-1.678,3.497-19.262,0.402-20.833,3.944
	c-1.572,3.547-2.655,8.304-4.118,11.891c-1.465,3.594,35.173,22.368,33.82,25.997c-1.357,3.637,7.637,10.438,6.394,14.105
	c-1.247,3.678,6.625,9.456,5.494,13.157c-1.135,3.715-8.005,4.888-9.022,8.621c-1.021,3.749-46.822-4.005-47.722-0.243
	c-0.905,3.78,32.209,15.27,31.428,19.057c-0.785,3.808-9.458,5.82-10.116,9.629c-0.663,3.832-23.113,4.46-23.646,8.287
	c-0.536,3.853,7.346,8.764,6.943,12.605c-0.754,3.826,31.903,12.409,31.363,16.325c-0.534,3.866-36.918,3.434-37.245,7.37
	c-0.323,3.892-16.576,7.906-16.699,11.851c-0.122,3.907-4.537,9.285-4.463,13.227c0.073,3.912,11.119,8.65,11.384,12.58
	c0.263,3.907,14.363,7.239,14.814,11.149c0.449,3.894,35.825,2.436,36.46,6.317c0.633,3.872-25.112,12.002-24.296,15.845
	c0.815,3.841-1.38,8.418-0.383,12.215c0.998,3.8,31.018-1.438,32.197,2.304c1.181,3.75-7.404,9.621-6.042,13.298
	c1.367,3.69-18.125,15.323-16.578,18.923c1.555,3.617,28.187-4.927,29.923-1.416c1.746,3.531-43.752,32.275-41.824,35.682
	c1.94,3.429,33.801-10.384,35.924-7.096c2.138,3.31-22.208,25.8-19.885,28.95c2.338,3.171,3.361,9.874,5.884,12.866
	c2.539,3.01,40.264-25.034,42.99-22.223c2.739,2.826-13.879,25.725-10.953,28.332c2.935,2.615,20.566-12.407,23.688-10.029
	c3.122,2.378-15.497,37.186-12.189,39.309c3.296,2.116,30.512-35.618,33.991-33.773c3.453,1.831,7.001-0.154,10.632,1.393
	c3.587,1.528-2.812,28.031,0.948,29.266c3.695,1.213,2.326,26.516,6.187,27.43c3.775,0.894,19.022-56.419,22.955-55.826
	c3.828,0.577,3.166,43.531,7.143,43.809c3.95-0.049,10.314,15.45,14.201,15.197c3.939-0.256,5.113-37.53,8.985-37.99
	c3.916-0.465,8.658,5.855,12.504,5.188c3.881-0.674,8.876,3.377,12.684,2.505c3.836-0.879-1.373-34.479,2.387-35.554
	c3.78-1.081,6.253-1.417,9.955-2.688c3.715-1.276,20.312,33.297,23.946,31.836c3.642-1.465,1.86-15.935,5.418-17.579
	c3.561-1.646,7.005-3.154,10.481-4.972c3.474-1.817,18.106,15.721,21.493,13.738c3.381-1.98-8.022-28.364-4.73-30.503
	c3.285-2.134,17.985,12.397,21.18,10.113c3.185-2.278,5.555-6.384,8.649-8.805c3.083-2.413,19.247,9.92,22.238,7.372
	c2.979-2.539-12.074-26.319-9.188-28.987c2.875-2.657,8.9-2.238,11.679-5.016c2.769-2.767-13.11-23.141-10.437-26.021
	c2.663-2.87,40.895,25.879,43.461,22.904c2.557-2.965-10.656-19.852-8.197-22.916c2.451-3.055-21.451-26.102-19.1-29.248
	c2.345-3.138,22.791,7.392,25.035,4.169c2.239-3.215-9.499-15.367-7.363-18.661c2.133-3.288,41.142,16.444,43.172,13.084
	c2.027-3.355-31.507-27.543-29.585-30.964c1.921-3.418,7.422-4.355,9.236-7.833c1.814-3.478,16.256-0.403,17.962-3.935
	c1.707-3.533-7.994-12.19-6.396-15.771c1.599-3.584,36.014,6.671,37.502,3.045c1.49-3.632-49.476-27.737-48.099-31.405
	c1.38-3.677,18.004-1.125,19.268-4.832c1.268-3.719,5.15-6.134,6.3-9.877c1.155-3.757,11.295-4.645,12.329-8.42
	c1.039-3.792-12.197-10.911-11.282-14.715c0.92-3.825,12.929-4.77,13.722-8.6c0.798-3.853-5.406-8.706-4.739-12.558
	c0.672-3.878,34.192-2.737,34.729-6.607c0.542-3.9-44.405-13.215-44.001-17.1c0.407-3.918,57.746-3.035,58.011-6.931
	c0.267-3.931-61.156-12.007-61.035-15.908c0.395-3.794,49.603-4.68,49.792-8.53c0.188-3.812,10.269-8.664,10.257-12.516
	c-0.012-3.82-20.64-8.012-20.846-11.855c-0.205-3.817,8.884-9.023,8.489-12.848c-0.393-3.806-47.686-1.351-48.264-5.15
	c-0.577-3.785-2.958-5.778-3.717-9.541c-0.758-3.756,5.104-7.637,4.166-11.357c-0.938-3.718,5.48-8.425,4.364-12.093
	c-1.117-3.671,21.096-14.811,19.802-18.417c-1.297-3.614-23.718,1.184-25.191-2.351c-1.478-3.546,3.589-9.338,1.936-12.789
	c-1.66-3.467,11.47-14.5,9.635-17.856c-1.845-3.374-19.102,2.299-21.122-0.948c-2.031-3.266-13.026,0.491-15.232-2.632
	c-2.219-3.141,29.386-31.811,26.992-34.792c-2.409-2.998-0.562-11.805-3.146-14.625c-2.597-2.834-31.574,19.19-34.346,16.553
	c-2.782-2.648,12.055-25.888,9.099-28.322c-2.962-2.438-5.602-7.962-8.738-10.169c-3.133-2.205-4.531-10.86-7.835-12.818
	c-3.29-1.95-28.952,36.472-32.408,34.783c-3.429-1.675-6.858,0.351-10.45-1.051c-3.547-1.385,6.928-44.209,3.225-45.312
	c-3.641-1.084-16.928,33.923-20.719,33.126c-3.709-0.78-2.193-34.493-6.044-34.985c-3.753-0.479-37.617,25.366-41.502,25.173
	C1490.573,512.902,1519.201,494.665,1519.201,494.665z M218.932,527.991c-3.975-0.034-9.079,9.611-13.035,9.878
	c-3.965,0.267-10.603-10.729-14.529-10.167c-3.933,0.563,2.498,57.023-1.376,57.877c-3.879,0.855-21.067-50.689-24.867-49.549
	c-3.804,1.142,6.628,44.205,2.924,45.627c-3.708,1.423-4.723,4.832-8.309,6.53c-3.589,1.699-11.747-8.265-15.194-6.298
	c-3.447,1.967,2.234,15.852-1.051,18.082c-3.283,2.228-9.655-2.67-12.755-0.186c-3.094,2.479-18.253-9.958-21.145-7.23
	c-2.881,2.718,2.403,12.92-0.258,15.88c-2.645,2.942-19.021-5.529-21.428-2.354c-2.387,3.149,10.111,16.569,7.977,19.94
	c-2.11,3.334,13.354,14.908,11.511,18.454c-1.817,3.495-36.125-9.153-37.665-5.458c-1.512,3.63,11.852,12.747,10.624,16.566
	c-1.182,3.685,15.851,12.06,14.82,15.785c-1.031,3.729-2.726,6.203-3.607,9.968c-0.882,3.766-34.027,0.267-34.761,4.064
	c-0.734,3.797-11.506,6.335-12.094,10.158c-0.587,3.821,41.881,13.273,41.438,17.116c-0.443,3.84-41.124,3.585-41.425,7.443
	c-0.3,3.853,5.533,8.497,5.373,12.363c-0.16,3.861-13.297,7.955-13.32,11.824c-0.023,3.865-8.935,8.748-8.822,12.616
	c0.113,3.863,17.238,7.7,17.484,11.562c0.245,3.857-16.273,9.819-15.897,13.671c0.376,3.846,1.775,8.59,2.279,12.427
	c0.504,3.832,40.884,2.071,41.515,5.889c0.63,3.813,11.615,5.224,12.369,9.02c0.753,3.791,10.284,4.851,11.16,8.62
	c0.875,3.765-4.374,8.17-3.379,11.909c0.995,3.736-41.683,19.801-40.57,23.506c1.112,3.703,34.9-2.827,36.128,0.841
	c1.228,3.666-5.118,9.714-3.775,13.341c1.343,3.627-17.4,15.252-15.944,18.836c1.455,3.583,10.728,4.283,12.294,7.819
	c1.567,3.536,33.055-7.016,34.731-3.531c1.677,3.486-28.481,22.672-26.696,26.102c1.785,3.432-9.908,14.832-8.017,18.203
	c1.893,3.374,0.584,9.68,2.581,12.99c1.999,3.313,13.506,1.656,15.608,4.9c2.105,3.247,15.708-0.687,17.914,2.487
	c2.209,3.178,32.352-14.162,34.66-11.063c2.312,3.104-16.456,21.856-14.046,24.877c2.414,3.026,2.468,8.013,4.978,10.951
	c2.514,2.943,27.061-14.198,29.671-11.348c2.614,2.855-2.415,11.853,0.293,14.611c2.711,2.762-10.136,20.994-7.332,23.654
	c2.807,2.664,23.806-15.065,26.704-12.508c2.901,2.561-28.19,45.276-25.2,47.725c2.993,2.452,27.316-21.396,30.396-19.06
	c3.083,2.337-12.398,30.919-9.23,33.135c3.169,2.217,5.504,7.743,8.757,9.835c3.252,2.092,30.91-34.841,34.244-32.879
	c3.331,1.961-6.812,27.833-3.401,29.659c3.407,1.824,17.078-16.351,20.562-14.665c3.477,1.683-8.688,38.448-5.136,39.989
	c3.542,1.536,24.577-39.009,28.193-37.619c3.602,1.385,7.617-0.636,11.29,0.6c3.656,1.231-0.861,27.664,2.864,28.743
	c3.704,1.073,1.969,25.741,5.739,26.659c3.744,0.912,19.783-55.049,23.591-54.294c3.816,0.653,1.486,42.676,5.25,42.977
	c3.849,0.308,9.21,15.901,12.995,15.857c3.852-0.045,6.687-36.573,10.461-36.966c3.822-0.398,8.377,5.799,12.108,5.062
	c3.762-0.743,8.908,3.002,12.566,1.933c3.674-1.074-4.303-33.426-0.746-34.812c3.561-1.387,5.125-1.624,8.558-3.305
	c3.429-1.679,24.018,29.784,27.307,27.83c3.28-1.949-0.749-15.696,2.38-17.9c3.118-2.197,6.062-4.234,9.019-6.666
	c2.945-2.423,20.818,11.152,23.591,8.512c2.763-2.63-14.261-25.132-11.68-27.959c2.573-2.818,20.243,7.137,22.623,4.141
	c2.374-2.989,3.575-7.689,5.746-10.838c2.168-3.144,21.246,3.054,23.2-0.232c1.953-3.284-19.608-20.637-17.88-24.046
	s7.42-5.226,8.913-8.743c1.494-3.519-20.725-15.637-19.478-19.248c1.248-3.614,47.168,6.146,48.158,2.458
	c1-3.76-17.889-13.106-17.041-16.894c0.85-3.795-30.201-13.693-29.501-17.513c0.7-3.824,23.266-3.507,23.818-7.352
	c0.552-3.848-15.116-9.266-14.71-13.13c0.405-3.865,43.317-4.136,43.578-8.013c0.261-3.877-39.888-9.833-39.77-13.717
	c0.118-3.883,4.469-7.167,4.446-11.054c-0.022-3.884,13.909-7.886,13.748-11.77c-0.161-3.881-12.573-6.863-12.87-10.74
	c-0.296-3.873,34.182-11.229,33.752-15.093c-0.429-3.86-55.671-0.551-56.232-4.398c-0.56-3.843,14.936-9.514,14.246-13.341
	c-0.688-3.822,1.486-7.749,0.67-11.55c-0.814-3.797,7.44-9.441,6.501-13.214c-0.938-3.769-15.694-3.525-16.754-7.266
	c-1.059-3.737,8.751-10.356,7.573-14.06c-1.178-3.701-8.834-4.913-10.13-8.578c-1.295-3.663,27.95-18.787,26.54-22.409
	c-1.41-3.62-44.425,9.809-45.948,6.234c-1.523-3.574,48.167-30.027,46.533-33.552c-1.634-3.525-57.92,19.303-59.663,15.83
	c-1.744-3.473,39.18-29.017,37.329-32.433c-1.852-3.417,4.415-12.24,2.458-15.597c-1.958-3.358-21.49,3.235-23.551-0.057
	c-2.063-3.295,3.403-11.952,1.239-15.178c-2.166-3.228-42.362,20.165-44.628,17.01c-2.267-3.158-5.588-4.34-7.953-7.421
	c-2.368-3.084,0.828-9.441-1.636-12.443c-2.466-3.006,1.032-10.18-1.529-13.1c-2.563-2.923,12.822-21.895,10.166-24.728
	c-2.659-2.837-21.228,9.941-23.978,7.199c-2.753-2.746-0.5-10.106-3.341-12.753c-2.845-2.65,5.247-17.447,2.316-19.995
	c-2.935-2.55-17.103,8.331-20.123,5.888c-3.022-2.445-12.455,4.194-15.56,1.86c-3.107-2.335,18.187-38.429,14.998-40.649
	c-3.19-2.22-3.288-10.716-6.556-12.816c-3.269-2.101-25.522,25.838-28.868,23.861c-3.345-1.976,6.223-27.289,2.803-29.137
	c-3.417-1.846-5.769-6.146-9.259-7.86c-3.689-2.071-5.995-10.37-9.797-12.095c-3.848-1.745-25.118,38.364-29.059,36.967
	c-3.977-1.41-7.477,0.838-11.526-0.222c-4.078-1.068,0.821-44.103-3.306-44.823c-4.15-0.724-13.535,34.871-17.71,34.493
	c-4.194-0.379,12.389-16.884,8.195-16.92C236.376,536.512,218.932,527.991,218.932,527.991z M885.489,836.548
	c-3.922,0.008-8.266,9.585-12.19,9.717c-3.919,0.132-9.024-11.266-12.943-11.012c-3.913,0.254-3.201,57.112-7.111,57.486
	c-3.903,0.373-13.65-53.121-17.547-52.631c-3.89,0.49-1.651,44.76-5.531,45.364c-3.874,0.603-6.645,3.853-10.506,4.569
	c-3.855,0.715-9.691-10.98-13.531-10.155c-3.833,0.823-3.844,16.01-7.659,16.941c-3.809,0.93-8.957-5.722-12.745-4.687
	c-3.783,1.034-12.682-16.535-16.441-15.397c-3.754,1.136-4.082,12.695-7.809,13.931c-3.722,1.235-13.313-14.525-17.006-13.191
	c-3.689,1.333-1.03,19.494-4.687,20.924c-3.653,1.428,0.389,20.501-3.229,22.024c-3.616,1.522-21.536-30.445-25.113-28.831
	c-3.576,1.614-0.484,17.502-4.02,19.207c-3.535,1.704,1.687,20.012-1.804,21.805c-3.491,1.793-6.857,2.408-10.301,4.288
	c-3.445,1.88-22.903-25.211-26.299-23.246c-3.398,1.966-12.243-4.619-15.589-2.57c-3.348,2.05,16.52,40.772,13.226,42.903
	c-3.296,2.133-28.887-29.511-32.125-27.298c-3.242,2.215-3.187,9.63-6.369,11.923c-3.186,2.297-14.403-5.621-17.524-3.249
	c-3.127,2.377-12.261-1.873-15.322,0.578c-3.066,2.456,4.218,18.385,1.222,20.913c-3.002,2.534-17.498-7.328-20.427-4.723
	c-2.936,2.611-5.845,6.417-8.704,9.098c-2.866,2.688,22.008,34.546,19.222,37.302c-2.794,2.763,2.274,12.661-0.437,15.49
	c-2.719,2.838,1.737,11.395-0.895,14.297c-2.64,2.911-9.067,0.871-11.617,3.846c-2.426,3.054-40.267-22.336-42.668-19.254
	c-2.397,3.077,22.259,27.078,19.888,30.183c-2.368,3.1-11.049,1.323-13.389,4.451c-2.337,3.124-22.12-6.595-24.429-3.445
	c-2.306,3.147,2.015,11.263-0.262,14.436c-2.275,3.17,22.435,25.397,20.191,28.593c-2.242,3.194-33.638-13.937-35.848-10.718
	c-2.209,3.217-17.512-2.208-19.688,1.034c-2.175,3.24-8.093,4.377-10.233,7.642c-2.14,3.264,4.51,12.561,2.405,15.85
	c-2.104,3.288,7.13,13.925,5.063,17.237c-2.067,3.311,25.402,24.687,23.373,28.022c-2.029,3.335-26.514-7.009-28.504-3.65
	c-1.99,3.358-6.668,5.15-8.618,8.532c-1.95,3.382,22.056,21.343,20.147,24.748c-1.909,3.405-12.275,1.816-14.141,5.244
	c-1.867,3.428-23.067-3.614-24.891-0.163c-1.824,3.452,20.613,19.388,18.834,22.862c-1.78,3.475-50.606-16.717-52.34-13.22
	c-1.734,3.498,26.854,21.967,25.167,25.486c-1.688,3.521-32.568-6.537-34.207-2.995c-1.64,3.543-6.416,6.107-8.006,9.672
	c-1.591,3.565,38.896,25.681,37.355,29.267c-1.541,3.587-28.421-3.512-29.91,0.096c-1.489,3.609,17.812,15.646,16.375,19.275
	c-1.437,3.63-38.798-6.498-40.18-2.848c-1.383,3.651,39.902,23.191,38.575,26.861c-1.327,3.671,0.545,8.174-0.725,11.864
	c-1.271,3.691-27.679-1.161-28.892,2.549c-1.213,3.71-25.632,0.354-26.785,4.083c-1.154,3.729,53.381,24.224,52.288,27.972
	c-1.093,3.747-42.589-4.036-43.62-0.271c-1.031,3.764-17.034,3.953-18.002,7.735c-0.968,3.781,33.324,16.485,32.42,20.283
	c-0.904,3.796-8.409,6.036-9.247,9.85c-0.838,3.811-6.335,6.327-7.107,10.155c-1.256,3.689,29.807,15.72,28.852,19.443
	c-0.967,3.769-1.742,5.407-2.409,9.198c-0.673,3.827-38.238,1.945-38.615,5.78c-0.379,3.863,13.075,8.814,12.987,12.671
	c-0.088,3.877-0.2,7.504-0.003,11.361c0.198,3.87-21.341,10.209-20.865,14.044c0.478,3.843,28.701,3.58,29.449,7.373
	c0.749,3.798-17.741,12.153-16.73,15.886c1.011,3.736,4.101,7.543,5.365,11.198c1.265,3.657-15.01,15.408-13.502,18.97
	c1.509,3.564,28.28-3.491,30.024-0.038c1.744,3.455-0.145,9.153,1.824,12.482c1.971,3.331,24.956-7.287,27.142-4.097
	c2.188,3.193-33.036,34.232-30.641,37.269c2.397,3.039,21.338-6.403,23.933-3.535c2.597,2.87,28.087-17.364,30.872-14.681
	c2.788,2.685-10.001,21.192-7.035,23.674c2.968,2.483,15.32-8.441,18.458-6.176c3.136,2.264-17.261,40.002-13.966,42.033
	c3.291,2.028,26.723-31.096,30.163-29.316c3.43,1.775,4.05,6.828,7.62,8.342c3.552,1.506,1.768,15.818,5.448,17.051
	c3.654,1.224,10.399-9.523,14.17-8.583c3.733,0.931,0.904,36.083,4.743,36.722c3.79,0.63,14.209-53.669,18.094-53.337
	c3.822,0.327,5.272,16.603,9.178,16.628c3.948,0.11,7.429,3.025,11.344,2.965c3.945-0.06,7.891,9.116,11.804,8.894
	c3.935-0.223,6.364-14.775,10.269-15.151c3.92-0.377,8.686,10.447,12.578,9.927c3.9-0.522,6.436-7.859,10.31-8.513
	c3.877-0.655,13.807,30.74,17.661,29.962c3.852-0.778-1.901-45.479,1.93-46.368c3.827-0.888,21.126,52.682,24.934,51.693
	c3.802-0.987-8.303-60.516-4.518-61.593c3.777-1.075,21.07,43.971,24.833,42.817c3.755-1.151,10.839,6.872,14.581,5.654
	c3.734-1.216,1.344-21.64,5.068-22.913c3.716-1.27,10.627,6.164,14.335,4.848c3.702-1.313-8.349-46.257-4.653-47.605
	c3.691-1.347,6.525-4.484,10.212-5.856c3.683-1.37,9.533,3.331,13.214,1.946c3.678-1.384,9.914,4.075,13.593,2.687
	c3.678-1.388,15.869,19.819,19.55,18.437c3.681-1.382-0.386-23.593,3.299-24.959c3.688-1.366,9.817,3.694,13.512,2.355
	c3.698-1.341,12.92,12.793,16.627,11.49c3.711-1.305,1.751-19.083,5.473-20.341c3.727-1.259,4.222-13.045,7.962-14.246
	c3.746-1.202,19.888,37.475,23.649,36.342c3.767-1.135,9,4.64,12.784,3.585c3.789-1.057-1.778-36.277,2.03-37.243
	c3.812-0.967,13.709,24.162,17.543,23.296c3.835-0.866,7.648,1.129,11.507,0.375c3.857-0.754,8.051,4.982,11.934,4.351
	c3.876-0.63,1.068-45.884,4.973-46.382c3.893-0.497,8.114-4.155,12.038-4.51c3.905-0.353,11.965,42.299,15.902,42.097
	c3.866-0.589,3.971-37.439,7.808-37.846c3.884-0.412,10.327,32.062,14.183,31.829c3.894-0.236,6.12-47.859,9.987-47.922
	c3.896-0.064,7.419,58.19,11.289,58.292c3.892,0.103,6.779-3.702,10.645-3.441c3.881,0.263,12.251-51.227,16.107-50.814
	c3.865,0.414,7.707,7.503,11.547,8.058c3.844,0.556,1.907,36.903,5.729,37.591c3.821,0.688,15.123-36.377,18.923-35.567
	c3.795,0.809-0.579,37.732,3.196,38.654c3.769,0.92,17.991-38.097,21.741-37.075c3.742,1.02-8.277,56.979-4.552,58.092
	c3.716,1.11,24.18-51.935,27.88-50.743c3.692,1.19,7.931,2.273,11.608,3.536c3.669,1.26-4.993,37.827-1.338,39.15
	c3.648,1.321,2.227,15.586,5.862,16.961c3.629,1.372,25.78-45.381,29.398-43.965c3.615,1.415,5.981,6.585,9.585,8.035
	c3.602,1.449,1.733,16.634,5.326,18.109c3.593,1.475-5.466,33.445-1.881,34.936c3.587,1.492,24.827-39.322,28.407-37.823
	c3.585,1.502-12.968,51.061-9.388,52.561c3.585,1.502,18.823-24.8,22.404-23.309c3.589,1.495,12.476-9.883,16.061-8.408
	c3.597,1.479-1.336,23.877,2.259,25.326c3.608,1.454,3.089,13.682,6.696,15.097c3.622,1.421,22.661-35.976,26.283-34.604
	c3.622,1.549-7.376,41.401-3.641,42.759c3.705,1.348,7.081,7.823,10.88,8.979c3.775,1.149,10.554-3.945,14.406-2.99
	c3.834,0.95,11.014-9.881,14.906-9.127c3.881,0.752,8.613-1.578,12.535-1.026c3.918,0.552,10.114-21.818,14.057-21.47
	c3.944,0.349,7.408-12.482,11.36-12.341c3.959,0.141,6.556,17.443,10.508,17.371c3.964-0.071,6.957-2.839,10.897-3.129
	c3.956-0.291,9.619,19.713,13.534,19.198c3.934-0.517,6.164-11.091,10.039-11.839c3.897-0.752,11.724,15.229,15.545,14.24
	c3.842-0.995,2.071-21.289,5.818-22.529c3.767-1.246,22.391,35.348,26.043,33.849c3.669-1.505,5.33-12.293,8.866-14.056
	c3.545-1.768,12.089,1.371,15.482-0.662c3.393-2.034-27.157-55.695-23.934-57.998c3.213-2.296,35.189,33.374,38.214,30.805
	c3.004-2.551,14.72,1.597,17.521-1.227c2.769-2.791-13.059-24.149-10.506-27.212c2.511-3.012-19.721-23.411-17.434-26.69
	c2.238-3.209,32.88,12.81,34.887,9.341c1.955-3.379,18.943-1.231,20.665-4.859c1.354-3.698-14.819-14.987-13.733-18.704
	c1.102-3.772-7.87-9.912-7.031-13.7c0.849-3.829,13.208-5.348,13.801-9.19c0.597-3.869-32.281-11.019-31.929-14.897
	c0.353-3.892,43.642-4.698,43.762-8.597c0.12-3.901-42.396-7.484-42.496-11.388c-0.1-3.897,46.499-9.935,46.194-13.832
	c-0.304-3.884,12.345-10.308,11.85-14.188c-0.492-3.863-53.724-0.027-54.391-3.883c-0.664-3.836,42.032-16.104,41.208-19.93
	c-0.819-3.806-46.165,2.853-47.13-0.94c-0.96-3.774,5.351-8.854,4.26-12.611c-1.086-3.74,19.213-13.901,18.01-17.622
	c-1.199-3.708-29.208,1.871-30.511-1.815c-1.3-3.676,38.217-22.34,36.827-25.992c-1.389-3.646-51.226,11.854-52.693,8.235
	c-1.467-3.618-4.248-6.057-5.782-9.644c-1.536-3.594,45.694-28.4,44.104-31.96c-1.595-3.571-19.415,0.061-21.052-3.474
	c-1.646-3.553,12.492-14.67,10.816-18.183c-1.687-3.537-13.608-2.271-15.312-5.763c-1.721-3.526-3.529-7.059-5.254-10.536
	c-1.746-3.518-38.477,10.479-40.213,7.014c-1.762-3.516,15.054-15.806,13.316-19.264c-2.079-3.291,22.557-22.966,20.47-26.264
	c-2.082-3.29-35.156,13.044-37.247,9.748c-2.086-3.288-12.5-1.245-14.597-4.537c-2.093-3.285,31.865-29.594,29.761-32.88
	c-2.101-3.281-33.939,12.536-36.053,9.256c-2.111-3.275,0.094-9.288-2.031-12.56c-2.122-3.268,18.107-21.126,15.969-24.39
	c-2.136-3.26,5.451-13.036,3.299-16.29c-2.151-3.251-52.899,25.836-55.068,22.593c-2.167-3.24,2.967-11.212,0.781-14.443
	c-2.185-3.229-7.388-4.219-9.594-7.436c-2.205-3.215,29.954-30.121,27.727-33.322c-2.227-3.201-1.267-8.786-3.516-11.971
	c-2.25-3.185-24.795,8.019-27.069,4.852c-2.275-3.168,5.862-13.883,3.562-17.032c-2.301-3.149,11.18-18.122,8.852-21.25
	c-2.329-3.129-15.518,1.668-17.875-1.437c-2.358-3.107-4.717-6.382-7.105-9.464c-2.389-3.084-9.186-2.858-11.606-5.914
	c-2.422-3.058-11.33-0.976-13.784-4.005c-2.456-3.031-15.366,2.618-17.856-0.382c-2.491-3.002-1.166-9.027-3.692-11.996
	c-2.528-2.971,1.762-11.743-0.802-14.679c-2.566-2.938-4.92-6.068-7.523-8.969c-2.606-2.903,4.585-14.86,1.941-17.723
	c-2.646-2.866-1.528-9.592-4.215-12.417c-2.688-2.826-29.013,17.122-31.743,14.339c-2.731-2.784,13.877-24.848,11.103-27.587
	c-2.776-2.74-31.619,21.488-34.439,18.795c-2.82-2.693,9.694-21.406,6.828-24.05c-2.866-2.644-6.695-4.166-9.608-6.759
	c-2.912-2.592-14.903,5.485-17.864,2.946c-2.959-2.538,3.359-15.817,0.351-18.299c-3.007-2.481,10.782-26.066,7.724-28.489
	c-3.054-2.421-9.287-1.473-12.393-3.835c-3.102-2.359-27.686,24.079-30.841,21.781c-3.149-2.294,1.403-15.053-1.8-17.284
	c-3.196-2.226-6.811-3.71-10.061-5.872c-3.243-2.156-14.18,7.979-17.479,5.889c-3.288-2.084,1.241-16.398-2.104-18.415
	c-3.267-2.025-5.46-5.674-8.77-7.564c-3.337-1.905-20.308,22.391-23.686,20.622c-3.403-1.782-0.076-14.971-3.517-16.617
	c-3.464-1.656,1.461-20.963-2.039-22.483c-3.52-1.529-2.973-13.581-6.528-14.974c-3.572-1.399-7.02-4.55-10.624-5.814
	c-3.619-1.269-19.963,36.655-23.612,35.521c-3.661-1.137,0.002-25.598-3.686-26.601c-3.698-1.006-11.248,14.719-14.971,13.846
	c-3.73-0.875-0.19-35.03-3.942-35.773c-3.757-0.744-10.788,15.407-14.564,14.793c-3.779-0.615-5.779-14.584-9.574-15.07
	c-3.797-0.487-7.921-1.595-11.732-1.955c-3.81-0.36-7.244-13.343-11.065-13.579c-3.819-0.235-9.789,45.44-13.616,45.327
	c-3.824-0.112,14.136-24.718,10.307-24.71C904.794,844.891,885.489,836.548,885.489,836.548z"/>
</svg>
