<?xml version="1.0" encoding="utf-8"?>
<!-- Generator: Adobe Illustrator 24.0.2, SVG Export Plug-In . SVG Version: 6.00 Build 0)  -->
<svg version="1.1" id="Слой_1" xmlns="http://www.w3.org/2000/svg" xmlns:xlink="http://www.w3.org/1999/xlink" x="0px" y="0px"
	 viewBox="0 0 80 36" style="enable-background:new 0 0 80 36;" xml:space="preserve">
<style type="text/css">
	.st0{fill:#FFFFFF;}
</style>
<path class="st0" d="M65.9,34.3H0v1.4h79.9v-1.4h-1H65.9z M40,0L0,19v2.6h1.1c1.3-1.3,3.9-2.4,5.7-1.8C7,20,7,20.2,7.2,20.2
	c0.3,0,0.3-0.2,0.4-0.4c1.7-0.6,4.2,0.4,5.5,1.7l0.1,0.1v0.1h1.1v2.8h2.3v-9.6h1.1c1.3-1.3,3.9-2.4,5.7-1.8c0.2,0.2,0.2,0.4,0.4,0.4
	c0.3,0,0.3-0.2,0.4-0.4c1.7-0.6,4.2,0.4,5.5,1.7l0.1,0.1V15h1.1v9.5h2.3V8h1.1c1.3-1.3,3.9-2.4,5.7-1.8c0,0.2,0,0.4,0.3,0.4
	s0.3-0.2,0.4-0.4c1.7-0.6,4.2,0.4,5.5,1.7L46.3,8v0.1h1.1v16.3h2.3v-9.5h1.1c1.3-1.3,3.9-2.4,5.7-1.8c0.2,0.2,0.2,0.4,0.4,0.4
	c0.3,0,0.3-0.2,0.4-0.4c1.7-0.6,4.2,0.4,5.5,1.7l0.1,0.1V15H64v9.5h2.3v-2.8h1.1c1.3-1.3,3.9-2.4,5.7-1.8c0.2,0.2,0.2,0.4,0.4,0.4
	c0.3,0,0.3-0.2,0.4-0.4c1.7-0.6,4.2,0.4,5.5,1.7l0.1,0.1v0.1H80V19L40,0z"/>
</svg>
